# Blender v2.78 (sub 0) OBJ File: 'carx3.blend'
# www.blender.org
o Teker_1_Untitled.036
v 0.000000 0.408692 0.000000
v 0.000000 0.162156 -0.000000
v 0.000000 0.332508 0.234469
v 0.000000 0.608143 0.144910
v -0.000000 0.608143 -0.144910
v -0.000000 0.332508 -0.234469
v 0.172707 0.406382 -0.004606
v 0.172707 0.037383 -0.004606
v 0.137272 0.001948 -0.004606
v -0.111961 0.001948 -0.004606
v -0.147395 0.037383 -0.004606
v 0.172707 0.069284 0.145479
v 0.137272 0.036913 0.159892
v -0.111961 0.036913 0.159892
v -0.147395 0.069284 0.145479
v 0.172707 0.159473 0.269614
v 0.137272 0.135763 0.295947
v -0.111961 0.135763 0.295947
v -0.147395 0.159473 0.269614
v 0.172707 0.292355 0.346333
v 0.137272 0.281405 0.380033
v -0.111961 0.281405 0.380034
v -0.147395 0.292355 0.346333
v 0.172707 0.444953 0.362372
v 0.137272 0.448657 0.397612
v -0.111961 0.448657 0.397612
v -0.147395 0.444953 0.362372
v 0.172707 0.590882 0.314957
v 0.137272 0.608599 0.345644
v -0.111961 0.608599 0.345644
v -0.147395 0.590882 0.314957
v 0.172707 0.704909 0.212286
v 0.137272 0.733577 0.233114
v -0.111961 0.733577 0.233114
v -0.147395 0.704909 0.212286
v 0.172707 0.767319 0.072113
v 0.137272 0.801979 0.079480
v -0.111961 0.801979 0.079480
v -0.147395 0.767319 0.072113
v 0.172707 0.767319 -0.081326
v 0.137272 0.801979 -0.088693
v -0.111961 0.801979 -0.088693
v -0.147395 0.767319 -0.081326
v 0.172707 0.704909 -0.221499
v 0.137272 0.733577 -0.242327
v -0.111961 0.733577 -0.242327
v -0.147395 0.704909 -0.221499
v 0.172707 0.590882 -0.324169
v 0.137272 0.608599 -0.354857
v -0.111961 0.608599 -0.354857
v -0.147395 0.590882 -0.324169
v 0.172707 0.444953 -0.371585
v 0.137272 0.448657 -0.406825
v -0.111961 0.448657 -0.406825
v -0.147395 0.444953 -0.371585
v 0.172707 0.292355 -0.355546
v 0.137272 0.281405 -0.389246
v -0.111961 0.281405 -0.389246
v -0.147395 0.292355 -0.355546
v 0.172707 0.159473 -0.278827
v 0.137272 0.135763 -0.305160
v -0.111961 0.135763 -0.305159
v -0.147395 0.159473 -0.278827
v 0.172707 0.069284 -0.154692
v 0.137272 0.036913 -0.169105
v -0.111961 0.036913 -0.169104
v -0.147395 0.069284 -0.154692
v -0.147395 0.164174 -0.004606
v -0.147395 0.185114 0.093909
v -0.147395 0.244313 0.175390
v -0.147395 0.331536 0.225748
v -0.147395 0.431700 0.236275
v -0.147395 0.527487 0.205152
v -0.147395 0.602333 0.137760
v -0.147395 0.643298 0.045752
v -0.147395 0.643298 -0.054964
v -0.147395 0.602333 -0.146973
v -0.147395 0.527487 -0.214365
v -0.147395 0.431700 -0.245488
v -0.147395 0.331536 -0.234960
v -0.147395 0.244313 -0.184602
v -0.147395 0.185114 -0.103121
v -0.093721 0.213079 -0.004606
v -0.093721 0.229791 0.074017
v -0.093721 0.277037 0.139046
v -0.093721 0.346648 0.179236
v -0.093721 0.426588 0.187638
v -0.093721 0.503034 0.162799
v -0.093721 0.562768 0.109015
v -0.093721 0.595461 0.035584
v -0.093721 0.595461 -0.044796
v -0.093721 0.562768 -0.118227
v -0.093721 0.503034 -0.172012
v -0.093721 0.426588 -0.196851
v -0.093721 0.346648 -0.188449
v -0.093721 0.277037 -0.148259
v -0.093721 0.229791 -0.083230
v 0.178163 0.213079 -0.004606
v 0.178163 0.229791 0.074017
v 0.178163 0.277037 0.139046
v 0.178163 0.346648 0.179236
v 0.178163 0.426588 0.187638
v 0.178163 0.503034 0.162799
v 0.178163 0.562768 0.109014
v 0.178163 0.595462 0.035584
v 0.178163 0.595462 -0.044796
v 0.178163 0.562768 -0.118227
v 0.178163 0.503034 -0.172012
v 0.178163 0.426588 -0.196851
v 0.178163 0.346648 -0.188449
v 0.178163 0.277037 -0.148259
v 0.178163 0.229791 -0.083230
vt 0.1675 0.5509
vt 0.1238 0.4274
vt 0.2654 0.4274
vt 0.0092 0.5037
vt 0.0092 0.3510
vt 0.1675 0.3038
vt 0.6018 0.8547
vt 0.6084 0.9480
vt 0.5429 0.8939
vt 0.5783 0.8062
vt 0.5070 0.8201
vt 0.5783 0.7531
vt 0.5070 0.7392
vt 0.6018 0.7046
vt 0.5429 0.6654
vt 0.6448 0.6691
vt 0.6084 0.6113
vt 0.6998 0.6527
vt 0.6922 0.5863
vt 0.7574 0.6583
vt 0.7799 0.5947
vt 0.8075 0.6848
vt 0.8562 0.6352
vt 0.8415 0.7278
vt 0.9080 0.7006
vt 0.8535 0.7797
vt 0.9264 0.7797
vt 0.0465 0.2587
vt 0.0917 0.2870
vt 0.0351 0.2870
vt 0.7887 0.8554
vt 0.8415 0.8316
vt 0.8075 0.8745
vt 0.7487 0.8765
vt 0.7574 0.9010
vt 0.5412 0.1517
vt 0.5959 0.1799
vt 0.5383 0.1799
vt 0.4973 0.1517
vt 0.4833 0.1799
vt 0.6245 0.8395
vt 0.6448 0.8902
vt 0.7562 0.1799
vt 0.7926 0.1517
vt 0.8091 0.1799
vt 0.7042 0.1517
vt 0.6984 0.1799
vt 0.6620 0.1517
vt 0.6455 0.1799
vt 0.6245 0.7198
vt 0.3694 0.1799
vt 0.4104 0.1517
vt 0.4244 0.1799
vt 0.3205 0.1517
vt 0.3118 0.1799
vt 0.7487 0.6828
vt 0.7887 0.7040
vt 0.1369 0.2587
vt 0.1483 0.2870
vt 0.4301 0.7006
vt 0.4484 0.7797
vt 0.2364 0.7797
vt 0.4487 0.6930
vt 0.9127 0.3822
vt 0.8182 0.5136
vt 0.8182 0.3822
vt 0.9127 0.5136
vt 0.8182 0.5322
vt 0.0917 0.1155
vt 0.0917 0.2587
vt 0.3783 0.6352
vt 0.3919 0.6213
vt 0.9908 0.3822
vt 0.8699 0.9380
vt 0.9080 0.8587
vt 0.9266 0.8663
vt 0.0092 0.1155
vt 0.0092 0.2587
vt 0.3019 0.5947
vt 0.3082 0.5770
vt 0.3674 0.4009
vt 0.2837 0.5322
vt 0.2837 0.4009
vt 0.7862 0.9823
vt 0.8562 0.9241
vt 0.5872 0.0084
vt 0.6272 0.1517
vt 0.5872 0.1517
vt 0.2143 0.5863
vt 0.4635 0.4009
vt 0.3737 0.3822
vt 0.4613 0.3822
vt 0.3674 0.5322
vt 0.4635 0.5322
vt 0.3737 0.5509
vt 0.5412 0.0084
vt 0.1304 0.6113
vt 0.2121 0.5677
vt 0.5554 0.4009
vt 0.5982 0.9642
vt 0.6922 0.9730
vt 0.6901 0.9916
vt 0.0649 0.6654
vt 0.0485 0.6544
vt 0.6272 0.5322
vt 0.6272 0.4009
vt 0.5264 0.9049
vt 0.4630 0.0084
vt 0.4630 0.1517
vt 0.0291 0.7392
vt 0.7338 0.3468
vt 0.6455 0.2154
vt 0.7338 0.2154
vt 0.4871 0.8240
vt 0.7504 0.0084
vt 0.7504 0.1517
vt 0.0291 0.8201
vt 0.8304 0.2154
vt 0.7380 0.1968
vt 0.8261 0.1968
vt 0.8304 0.3468
vt 0.7380 0.3654
vt 0.7042 0.0084
vt 0.0649 0.8939
vt 0.0485 0.9049
vt 0.9186 0.3468
vt 0.9186 0.2154
vt 0.5264 0.6544
vt 0.4871 0.7354
vt 0.6620 0.0084
vt 0.1304 0.9480
vt 0.3555 0.3468
vt 0.2837 0.2154
vt 0.3555 0.2154
vt 0.5982 0.5951
vt 0.4104 0.0084
vt 0.4447 0.1517
vt 0.2143 0.9730
vt 0.2121 0.9916
vt 0.4474 0.3468
vt 0.4474 0.2154
vt 0.6901 0.5677
vt 0.3664 0.0084
vt 0.3664 0.1517
vt 0.3019 0.9646
vt 0.5435 0.2154
vt 0.4495 0.1968
vt 0.5372 0.1968
vt 0.5435 0.3468
vt 0.5372 0.3654
vt 0.3205 0.0084
vt 0.3783 0.9241
vt 0.3082 0.9823
vt 0.6272 0.3468
vt 0.6272 0.2154
vt 0.7862 0.5770
vt 0.8699 0.6213
vt 0.2805 0.0084
vt 0.2805 0.1517
vt 0.4301 0.8587
vt 0.4487 0.8663
vt 0.7237 0.3822
vt 0.6455 0.5136
vt 0.6455 0.3822
vt 0.9266 0.6930
vt 0.1369 0.1155
vt 0.1742 0.2587
vt 0.4688 0.7797
vt 0.7237 0.5136
vt 0.7319 0.5322
vt 0.7799 0.9646
vt 0.6998 0.9066
vt 0.8158 0.8211
vt 0.6589 0.8679
vt 0.6589 0.6915
vt 0.8158 0.7382
vt 0.9044 0.5322
vt 0.0465 0.1155
vt 0.9908 0.5136
vt 0.6272 0.0084
vt 0.4613 0.5509
vt 0.1203 0.5951
vt 0.5554 0.5322
vt 0.4973 0.0084
vt 0.0092 0.7354
vt 0.6455 0.3468
vt 0.7926 0.0084
vt 0.8261 0.3654
vt 0.0092 0.8240
vt 0.1203 0.9642
vt 0.2837 0.3468
vt 0.4447 0.0084
vt 0.4495 0.3654
vt 0.3919 0.9380
vt 0.1742 0.1155
vn -1.0000 -0.0000 0.0000
vn -0.9202 -0.3346 -0.2034
vn -0.9249 0.1901 0.3293
vn -0.9249 0.3076 0.2235
vn -0.9200 -0.3887 -0.0495
vn -0.9249 0.3719 0.0791
vn -0.9201 -0.3752 0.1127
vn -0.9249 0.3719 -0.0791
vn -0.9202 -0.2968 0.2553
vn -0.9250 0.3074 -0.2233
vn -0.9201 -0.1673 0.3542
vn -0.9249 0.1901 -0.3293
vn -0.9200 -0.0086 0.3918
vn -0.9249 0.0397 -0.3782
vn -0.9202 0.1511 0.3612
vn -0.9249 -0.1175 -0.3616
vn -0.9201 0.2852 0.2685
vn -0.9248 -0.2546 -0.2827
vn -0.9201 0.3698 0.1293
vn -0.9249 -0.3474 -0.1547
vn -0.9200 0.3905 -0.0324
vn -0.9249 -0.3802 0.0000
vn -0.3654 0.8462 -0.3878
vn -0.9157 0.3672 -0.1635
vn -0.3656 0.6154 -0.6983
vn -0.9157 0.2689 -0.2987
vn -0.3656 0.2782 -0.8882
vn -0.9157 0.1242 -0.3822
vn -0.3659 -0.1069 -0.9245
vn -0.9157 -0.0420 -0.3997
vn -0.3654 -0.4742 -0.8010
vn -0.9503 -0.1557 -0.2697
vn -0.3657 -0.7587 -0.5391
vn -0.3656 -0.9083 0.2032
vn -0.3657 -0.7471 0.5550
vn -0.3795 -0.4480 0.8095
vn -0.3657 0.2970 0.8821
vn -0.3795 0.6315 0.6762
vn -0.3795 0.8519 0.3609
vn 0.9247 -0.3478 0.1549
vn 0.9247 -0.3808 -0.0000
vn 1.0000 0.0000 -0.0000
vn 0.3842 -0.8410 0.3809
vn -0.3850 -0.9229 -0.0000
vn 0.3673 -0.9299 0.0206
vn -0.3842 -0.8410 0.3809
vn -0.0000 1.0000 -0.0000
vn -0.3795 0.9251 -0.0165
vn 0.9247 -0.2548 0.2830
vn 0.3842 -0.6134 0.6900
vn -0.3842 -0.6134 0.6900
vn -0.9005 -0.4142 0.1325
vn -0.0000 0.6691 -0.7431
vn 0.9247 -0.1177 0.3621
vn 0.3842 -0.2797 0.8799
vn -0.3842 -0.2797 0.8799
vn -0.9006 -0.3240 0.2898
vn -0.0000 0.3090 -0.9511
vn 0.9248 0.0398 0.3784
vn 0.3842 0.1024 0.9176
vn -0.3842 0.1024 0.9176
vn -0.9004 -0.1791 0.3964
vn -0.0000 -0.1045 -0.9945
vn 0.9246 0.1905 0.3299
vn 0.3762 0.4479 0.8111
vn -0.3840 0.4667 0.7967
vn -0.9005 -0.0020 0.4349
vn 0.9248 0.3078 0.2237
vn 0.3842 0.7504 0.5379
vn -0.3761 0.7392 0.5587
vn -0.0000 -0.8090 -0.5878
vn 0.9246 0.3726 0.0792
vn -0.3761 0.9025 0.2097
vn 0.3643 0.9064 0.2138
vn 0.0000 -0.9781 -0.2079
vn -0.3770 -0.9023 -0.2091
vn 0.9247 0.3724 -0.0792
vn 0.3842 0.9018 -0.1977
vn -0.3761 0.9098 -0.1755
vn 0.0000 -0.9781 0.2079
vn 0.9248 0.3078 -0.2237
vn 0.3842 0.7435 -0.5474
vn -0.3761 0.7597 -0.5304
vn 0.0000 -0.8090 0.5878
vn 0.9246 0.1905 -0.3299
vn -0.3761 0.4783 -0.7936
vn 0.3643 0.4834 -0.7960
vn 0.0000 -0.5000 0.8660
vn 0.9247 0.0398 -0.3787
vn 0.3842 0.0906 -0.9188
vn -0.3761 0.1142 -0.9195
vn 0.0000 -0.1045 0.9945
vn -0.3770 -0.1137 0.9192
vn 0.9248 -0.1176 -0.3619
vn 0.3842 -0.2909 -0.8762
vn -0.3761 -0.2697 -0.8865
vn 0.0000 0.3090 0.9511
vn 0.9246 -0.2549 -0.2831
vn -0.3762 -0.6068 -0.7002
vn 0.3643 -0.6079 -0.7055
vn 0.0000 0.6691 0.7431
vn 0.9247 -0.3479 -0.1549
vn 0.3842 -0.8458 -0.3701
vn -0.3842 -0.8458 -0.3701
vn 0.0000 0.9135 0.4067
vn -0.0000 0.9135 -0.4067
vn 0.0000 -0.5000 -0.8660
s 1
f 3/1/1 1/2/1 2/3/1
f 4/4/1 1/2/1 3/1/1
f 5/5/1 1/2/1 4/4/1
f 6/6/1 1/2/1 5/5/1
f 2/3/1 1/2/1 6/6/1
f 74/7/2 31/8/3 35/9/4
f 75/10/5 35/9/4 39/11/6
f 76/12/7 39/11/6 43/13/8
f 77/14/9 43/13/8 47/15/10
f 78/16/11 47/15/10 51/17/12
f 79/18/13 51/17/12 55/19/14
f 80/20/15 55/19/14 59/21/16
f 81/22/17 59/21/16 63/23/18
f 82/24/19 63/23/18 67/25/20
f 68/26/21 67/25/20 11/27/22
f 84/28/23 68/29/21 69/30/24
f 85/31/25 69/32/24 70/33/26
f 86/34/27 70/33/26 71/35/28
f 87/36/29 71/37/28 72/38/30
f 88/39/31 72/38/30 73/40/32
f 89/41/33 73/42/32 74/7/2
f 75/43/5 89/44/33 74/45/2
f 91/46/34 75/43/5 76/47/7
f 92/48/35 76/47/7 77/49/9
f 78/16/11 92/50/35 77/14/9
f 79/51/13 93/52/36 78/53/11
f 95/54/37 79/51/13 80/55/15
f 81/22/17 95/56/37 80/20/15
f 82/24/19 96/57/38 81/22/17
f 68/29/21 97/58/39 82/59/19
f 12/60/40 8/61/41 7/62/42
f 13/63/43 8/61/41 12/60/40
f 13/64/43 10/65/44 9/66/45
f 14/67/46 11/68/22 10/65/44
f 84/28/23 98/69/47 83/70/48
f 16/71/49 12/60/40 7/62/42
f 17/72/50 12/60/40 16/71/49
f 17/73/50 14/67/46 13/64/43
f 18/74/51 15/75/52 14/76/46
f 100/77/53 84/28/23 85/78/25
f 20/79/54 16/71/49 7/62/42
f 21/80/55 16/71/49 20/79/54
f 21/81/55 18/82/51 17/83/50
f 22/84/56 19/85/57 18/74/51
f 101/86/58 85/87/25 86/88/27
f 24/89/59 20/79/54 7/62/42
f 25/90/60 20/91/54 24/92/59
f 25/90/60 22/93/56 21/81/55
f 26/94/61 23/95/62 22/93/56
f 102/96/63 86/88/27 87/36/29
f 28/97/64 24/89/59 7/62/42
f 28/97/64 25/98/60 24/89/59
f 29/99/65 26/94/61 25/90/60
f 30/100/66 27/101/67 26/102/61
f 88/39/31 102/96/63 87/36/29
f 32/103/68 28/97/64 7/62/42
f 33/104/69 28/97/64 32/103/68
f 34/105/70 29/99/65 33/106/69
f 34/107/70 31/8/3 30/100/66
f 104/108/71 88/39/31 89/109/33
f 36/110/72 32/103/68 7/62/42
f 36/110/72 33/104/69 32/103/68
f 38/111/73 33/112/69 37/113/74
f 38/114/73 35/9/4 34/107/70
f 105/115/75 89/44/33 90/116/76
f 40/117/77 36/110/72 7/62/42
f 41/118/78 36/119/72 40/120/77
f 42/121/79 37/113/74 41/118/78
f 42/121/79 39/122/6 38/111/73
f 106/123/80 90/116/76 91/46/34
f 44/124/81 40/117/77 7/62/42
f 45/125/82 40/117/77 44/124/81
f 46/126/83 41/118/78 45/127/82
f 46/128/83 43/13/8 42/129/79
f 107/130/84 91/46/34 92/48/35
f 48/131/85 44/124/81 7/62/42
f 48/131/85 45/125/82 44/124/81
f 50/132/86 45/133/82 49/134/87
f 51/17/12 46/128/83 50/135/86
f 108/136/88 92/137/35 93/52/36
f 52/138/89 48/131/85 7/62/42
f 53/139/90 48/131/85 52/138/89
f 54/140/91 49/134/87 53/141/90
f 55/19/14 50/135/86 54/142/91
f 109/143/92 93/52/36 94/144/93
f 56/145/94 52/138/89 7/62/42
f 57/146/95 52/147/89 56/148/94
f 58/149/96 53/141/90 57/146/95
f 59/150/16 54/140/91 58/149/96
f 110/151/97 94/144/93 95/54/37
f 60/152/98 56/145/94 7/62/42
f 60/152/98 57/153/95 56/145/94
f 62/154/99 57/146/95 61/155/100
f 63/23/18 58/156/96 62/157/99
f 111/158/101 95/54/37 96/159/38
f 64/160/102 60/152/98 7/62/42
f 65/161/103 60/152/98 64/160/102
f 65/162/103 62/163/99 61/164/100
f 66/165/104 63/23/18 62/157/99
f 112/166/105 96/167/38 97/58/39
f 8/61/41 64/160/102 7/62/42
f 9/168/45 64/160/102 8/61/41
f 9/66/45 66/169/104 65/162/103
f 10/65/44 67/170/20 66/169/104
f 98/69/47 97/58/39 83/70/48
f 69/32/24 11/27/22 15/75/52
f 70/33/26 15/75/52 19/85/57
f 23/171/62 70/33/26 19/85/57
f 72/172/30 23/171/62 27/101/67
f 73/42/32 27/101/67 31/8/3
f 74/7/2 73/42/32 31/8/3
f 75/10/5 74/7/2 35/9/4
f 76/12/7 75/10/5 39/11/6
f 77/14/9 76/12/7 43/13/8
f 78/16/11 77/14/9 47/15/10
f 79/18/13 78/16/11 51/17/12
f 80/20/15 79/18/13 55/19/14
f 81/22/17 80/20/15 59/21/16
f 82/24/19 81/22/17 63/23/18
f 68/26/21 82/24/19 67/25/20
f 84/28/23 83/70/48 68/29/21
f 85/31/25 84/173/23 69/32/24
f 86/34/27 85/31/25 70/33/26
f 87/36/29 86/88/27 71/37/28
f 88/39/31 87/36/29 72/38/30
f 89/41/33 88/174/31 73/42/32
f 75/43/5 90/116/76 89/44/33
f 91/46/34 90/116/76 75/43/5
f 92/48/35 91/46/34 76/47/7
f 78/16/11 93/175/36 92/50/35
f 79/51/13 94/144/93 93/52/36
f 95/54/37 94/144/93 79/51/13
f 81/22/17 96/57/38 95/56/37
f 82/24/19 97/176/39 96/57/38
f 68/29/21 83/70/48 97/58/39
f 13/63/43 9/168/45 8/61/41
f 13/64/43 14/67/46 10/65/44
f 14/67/46 15/177/52 11/68/22
f 84/28/23 99/178/106 98/69/47
f 17/72/50 13/63/43 12/60/40
f 17/73/50 18/179/51 14/67/46
f 18/74/51 19/85/57 15/75/52
f 100/77/53 99/178/106 84/28/23
f 21/80/55 17/72/50 16/71/49
f 21/81/55 22/93/56 18/82/51
f 22/84/56 23/171/62 19/85/57
f 101/86/58 100/180/53 85/87/25
f 25/90/60 21/81/55 20/91/54
f 25/90/60 26/94/61 22/93/56
f 26/94/61 27/181/67 23/95/62
f 102/96/63 101/86/58 86/88/27
f 28/97/64 29/182/65 25/98/60
f 29/99/65 30/183/66 26/94/61
f 30/100/66 31/8/3 27/101/67
f 88/39/31 103/184/107 102/96/63
f 33/104/69 29/182/65 28/97/64
f 34/105/70 30/183/66 29/99/65
f 34/107/70 35/9/4 31/8/3
f 104/108/71 103/184/107 88/39/31
f 36/110/72 37/185/74 33/104/69
f 38/111/73 34/186/70 33/112/69
f 38/114/73 39/11/6 35/9/4
f 105/115/75 104/187/71 89/44/33
f 41/118/78 37/113/74 36/119/72
f 42/121/79 38/111/73 37/113/74
f 42/121/79 43/188/8 39/122/6
f 106/123/80 105/115/75 90/116/76
f 45/125/82 41/189/78 40/117/77
f 46/126/83 42/121/79 41/118/78
f 46/128/83 47/15/10 43/13/8
f 107/130/84 106/123/80 91/46/34
f 48/131/85 49/190/87 45/125/82
f 50/132/86 46/191/83 45/133/82
f 51/17/12 47/15/10 46/128/83
f 108/136/88 107/192/84 92/137/35
f 53/139/90 49/190/87 48/131/85
f 54/140/91 50/132/86 49/134/87
f 55/19/14 51/17/12 50/135/86
f 109/143/92 108/136/88 93/52/36
f 57/146/95 53/141/90 52/147/89
f 58/149/96 54/140/91 53/141/90
f 59/150/16 55/193/14 54/140/91
f 110/151/97 109/143/92 94/144/93
f 60/152/98 61/194/100 57/153/95
f 62/154/99 58/149/96 57/146/95
f 63/23/18 59/21/16 58/156/96
f 111/158/101 110/151/97 95/54/37
f 65/161/103 61/194/100 60/152/98
f 65/162/103 66/169/104 62/163/99
f 66/165/104 67/25/20 63/23/18
f 112/166/105 111/195/101 96/167/38
f 9/168/45 65/161/103 64/160/102
f 9/66/45 10/65/44 66/169/104
f 10/65/44 11/68/22 67/170/20
f 98/69/47 112/166/105 97/58/39
f 69/32/24 68/26/21 11/27/22
f 70/33/26 69/32/24 15/75/52
f 23/171/62 71/35/28 70/33/26
f 72/172/30 71/35/28 23/171/62
f 73/42/32 72/172/30 27/101/67
